<svg width="1440" height="1024" viewBox="0 0 1440 1024" fill="none" xmlns="http://www.w3.org/2000/svg">
<rect width="1440" height="1024" fill="white"/>
<path d="M61.232 117.48C56.24 117.48 51.728 116.328 47.696 114.024C43.728 111.72 40.56 108.584 38.192 104.616C35.888 100.584 34.704 96.072 34.64 91.08V45.768C34.64 44.616 34.96 43.72 35.6 43.08C36.304 42.376 37.232 42.024 38.384 42.024C39.472 42.024 40.336 42.376 40.976 43.08C41.68 43.72 42.032 44.616 42.032 45.768V73.992C44.144 70.984 46.928 68.584 50.384 66.792C53.904 64.936 57.808 64.008 62.096 64.008C67.024 64.008 71.44 65.192 75.344 67.56C79.248 69.864 82.32 73.032 84.56 77.064C86.864 81.096 88.016 85.64 88.016 90.696C88.016 95.816 86.832 100.392 84.464 104.424C82.16 108.456 78.992 111.656 74.96 114.024C70.928 116.328 66.352 117.48 61.232 117.48ZM61.232 110.76C64.944 110.76 68.272 109.896 71.216 108.168C74.16 106.376 76.464 103.976 78.128 100.968C79.856 97.96 80.72 94.536 80.72 90.696C80.72 86.92 79.856 83.528 78.128 80.52C76.464 77.448 74.16 75.048 71.216 73.32C68.272 71.592 64.944 70.728 61.232 70.728C57.584 70.728 54.288 71.592 51.344 73.32C48.4 75.048 46.096 77.448 44.432 80.52C42.768 83.528 41.936 86.92 41.936 90.696C41.936 94.536 42.768 97.96 44.432 100.968C46.096 103.976 48.4 106.376 51.344 108.168C54.288 109.896 57.584 110.76 61.232 110.76ZM105.587 84.648C105.779 80.68 106.803 77.128 108.659 73.992C110.579 70.856 113.043 68.392 116.051 66.6C119.123 64.808 122.515 63.912 126.227 63.912C129.171 63.912 131.443 64.328 133.043 65.16C134.643 65.992 135.251 67.208 134.867 68.808C134.611 69.768 134.163 70.408 133.523 70.728C132.947 71.048 132.211 71.176 131.315 71.112C130.483 71.048 129.523 70.984 128.435 70.92C124.851 70.6 121.651 70.984 118.835 72.072C116.083 73.096 113.875 74.696 112.211 76.872C110.611 79.048 109.811 81.64 109.811 84.648H105.587ZM106.163 117C105.011 117 104.115 116.68 103.475 116.04C102.835 115.4 102.515 114.504 102.515 113.352V68.136C102.515 66.984 102.835 66.088 103.475 65.448C104.115 64.808 105.011 64.488 106.163 64.488C107.315 64.488 108.211 64.808 108.851 65.448C109.491 66.088 109.811 66.984 109.811 68.136V113.352C109.811 114.504 109.491 115.4 108.851 116.04C108.211 116.68 107.315 117 106.163 117ZM151.764 117C150.612 117 149.684 116.68 148.98 116.04C148.34 115.336 148.02 114.408 148.02 113.256V68.232C148.02 67.08 148.34 66.184 148.98 65.544C149.684 64.84 150.612 64.488 151.764 64.488C152.852 64.488 153.716 64.84 154.356 65.544C155.06 66.184 155.412 67.08 155.412 68.232V113.256C155.412 114.408 155.06 115.336 154.356 116.04C153.716 116.68 152.852 117 151.764 117ZM151.668 54.504C150.26 54.504 149.044 53.992 148.02 52.968C146.996 51.944 146.484 50.696 146.484 49.224C146.484 47.624 146.996 46.376 148.02 45.48C149.108 44.52 150.356 44.04 151.764 44.04C153.108 44.04 154.292 44.52 155.316 45.48C156.404 46.376 156.948 47.624 156.948 49.224C156.948 50.696 156.436 51.944 155.412 52.968C154.388 53.992 153.14 54.504 151.668 54.504ZM197.37 117.48C192.314 117.48 187.834 116.36 183.93 114.12C180.026 111.816 176.954 108.648 174.714 104.616C172.538 100.584 171.45 95.976 171.45 90.792C171.45 85.544 172.602 80.904 174.906 76.872C177.21 72.84 180.378 69.704 184.41 67.464C188.442 65.16 193.018 64.008 198.138 64.008C203.322 64.008 207.898 65.16 211.866 67.464C215.898 69.704 219.034 72.84 221.274 76.872C223.578 80.904 224.762 85.544 224.826 90.792L220.506 93.096C220.506 97.832 219.514 102.056 217.53 105.768C215.546 109.416 212.794 112.296 209.274 114.408C205.818 116.456 201.85 117.48 197.37 117.48ZM198.33 137.736C193.274 137.736 188.826 136.776 184.986 134.856C181.146 133 177.978 130.44 175.482 127.176C174.778 126.408 174.458 125.576 174.522 124.68C174.65 123.784 175.13 123.048 175.962 122.472C176.794 121.896 177.722 121.704 178.746 121.896C179.77 122.088 180.57 122.568 181.146 123.336C183.002 125.64 185.37 127.496 188.25 128.904C191.194 130.312 194.586 131.016 198.426 131.016C202.01 131.016 205.242 130.152 208.122 128.424C211.002 126.696 213.274 124.264 214.938 121.128C216.666 117.992 217.53 114.312 217.53 110.088V95.496L220.314 89.928L224.826 90.792V110.376C224.826 115.56 223.674 120.2 221.37 124.296C219.066 128.456 215.93 131.72 211.962 134.088C207.994 136.52 203.45 137.736 198.33 137.736ZM198.138 110.76C201.914 110.76 205.242 109.928 208.122 108.264C211.066 106.536 213.37 104.168 215.034 101.16C216.698 98.152 217.53 94.696 217.53 90.792C217.53 86.888 216.698 83.432 215.034 80.424C213.37 77.352 211.066 74.984 208.122 73.32C205.242 71.592 201.914 70.728 198.138 70.728C194.362 70.728 191.002 71.592 188.058 73.32C185.114 74.984 182.81 77.352 181.146 80.424C179.482 83.432 178.65 86.888 178.65 90.792C178.65 94.696 179.482 98.152 181.146 101.16C182.81 104.168 185.114 106.536 188.058 108.264C191.002 109.928 194.362 110.76 198.138 110.76ZM242.947 95.592C241.795 95.592 240.867 95.24 240.163 94.536C239.523 93.832 239.203 92.936 239.203 91.848V45.768C239.203 44.616 239.523 43.72 240.163 43.08C240.867 42.376 241.795 42.024 242.947 42.024C244.035 42.024 244.899 42.376 245.539 43.08C246.243 43.72 246.595 44.616 246.595 45.768V91.848C246.595 92.936 246.243 93.832 245.539 94.536C244.899 95.24 244.035 95.592 242.947 95.592ZM284.227 117C283.139 117 282.243 116.648 281.539 115.944C280.835 115.24 280.483 114.376 280.483 113.352V88.392C280.483 84.424 279.715 81.16 278.179 78.6C276.707 76.04 274.659 74.12 272.035 72.84C269.475 71.56 266.563 70.92 263.299 70.92C260.163 70.92 257.315 71.528 254.755 72.744C252.259 73.96 250.275 75.624 248.803 77.736C247.331 79.848 246.595 82.248 246.595 84.936H241.315C241.443 80.904 242.531 77.32 244.579 74.184C246.627 70.984 249.347 68.488 252.739 66.696C256.131 64.84 259.907 63.912 264.067 63.912C268.611 63.912 272.675 64.872 276.259 66.792C279.843 68.648 282.659 71.4 284.707 75.048C286.819 78.696 287.875 83.144 287.875 88.392V113.352C287.875 114.376 287.523 115.24 286.819 115.944C286.115 116.648 285.251 117 284.227 117ZM242.947 117C241.795 117 240.867 116.68 240.163 116.04C239.523 115.336 239.203 114.44 239.203 113.352V68.232C239.203 67.08 239.523 66.184 240.163 65.544C240.867 64.84 241.795 64.488 242.947 64.488C244.035 64.488 244.899 64.84 245.539 65.544C246.243 66.184 246.595 67.08 246.595 68.232V113.352C246.595 114.44 246.243 115.336 245.539 116.04C244.899 116.68 244.035 117 242.947 117ZM324.715 117C321.323 117 318.283 116.2 315.595 114.6C312.971 113 310.891 110.824 309.355 108.072C307.819 105.256 307.051 102.056 307.051 98.472V51.528C307.051 50.44 307.371 49.544 308.011 48.84C308.715 48.136 309.611 47.784 310.699 47.784C311.787 47.784 312.683 48.136 313.387 48.84C314.091 49.544 314.443 50.44 314.443 51.528V98.472C314.443 101.736 315.403 104.424 317.323 106.536C319.243 108.584 321.707 109.608 324.715 109.608H327.307C328.331 109.608 329.163 109.96 329.803 110.664C330.443 111.368 330.763 112.264 330.763 113.352C330.763 114.44 330.379 115.336 329.611 116.04C328.843 116.68 327.883 117 326.731 117H324.715ZM300.811 72.84C299.851 72.84 299.051 72.552 298.411 71.976C297.771 71.336 297.451 70.568 297.451 69.672C297.451 68.712 297.771 67.944 298.411 67.368C299.051 66.728 299.851 66.408 300.811 66.408H325.291C326.251 66.408 327.051 66.728 327.691 67.368C328.331 67.944 328.651 68.712 328.651 69.672C328.651 70.568 328.331 71.336 327.691 71.976C327.051 72.552 326.251 72.84 325.291 72.84H300.811ZM365.644 117.576C361.1 117.576 357.036 116.648 353.452 114.792C349.868 112.872 347.02 110.088 344.908 106.44C342.86 102.792 341.836 98.344 341.836 93.096V68.136C341.836 67.112 342.188 66.248 342.892 65.544C343.596 64.84 344.46 64.488 345.484 64.488C346.572 64.488 347.468 64.84 348.172 65.544C348.876 66.248 349.228 67.112 349.228 68.136V93.096C349.228 97.064 349.964 100.328 351.436 102.888C352.972 105.448 355.02 107.368 357.58 108.648C360.204 109.928 363.148 110.568 366.412 110.568C369.548 110.568 372.364 109.96 374.86 108.744C377.42 107.528 379.436 105.864 380.908 103.752C382.38 101.64 383.116 99.24 383.116 96.552H388.396C388.204 100.584 387.084 104.2 385.036 107.4C383.052 110.536 380.364 113.032 376.972 114.888C373.58 116.68 369.804 117.576 365.644 117.576ZM386.764 117C385.676 117 384.78 116.68 384.076 116.04C383.436 115.336 383.116 114.408 383.116 113.256V68.136C383.116 67.048 383.436 66.184 384.076 65.544C384.78 64.84 385.676 64.488 386.764 64.488C387.852 64.488 388.748 64.84 389.452 65.544C390.156 66.184 390.508 67.048 390.508 68.136V113.256C390.508 114.408 390.156 115.336 389.452 116.04C388.748 116.68 387.852 117 386.764 117ZM410.837 84.648C411.029 80.68 412.053 77.128 413.909 73.992C415.829 70.856 418.293 68.392 421.301 66.6C424.373 64.808 427.765 63.912 431.477 63.912C434.421 63.912 436.693 64.328 438.293 65.16C439.893 65.992 440.501 67.208 440.117 68.808C439.861 69.768 439.413 70.408 438.773 70.728C438.197 71.048 437.461 71.176 436.565 71.112C435.733 71.048 434.773 70.984 433.685 70.92C430.101 70.6 426.901 70.984 424.085 72.072C421.333 73.096 419.125 74.696 417.461 76.872C415.861 79.048 415.061 81.64 415.061 84.648H410.837ZM411.413 117C410.261 117 409.365 116.68 408.725 116.04C408.085 115.4 407.765 114.504 407.765 113.352V68.136C407.765 66.984 408.085 66.088 408.725 65.448C409.365 64.808 410.261 64.488 411.413 64.488C412.565 64.488 413.461 64.808 414.101 65.448C414.741 66.088 415.061 66.984 415.061 68.136V113.352C415.061 114.504 414.741 115.4 414.101 116.04C413.461 116.68 412.565 117 411.413 117ZM471.698 117.48C466.514 117.48 461.906 116.36 457.874 114.12C453.906 111.816 450.77 108.648 448.466 104.616C446.226 100.584 445.106 95.976 445.106 90.792C445.106 85.544 446.162 80.936 448.274 76.968C450.45 72.936 453.426 69.768 457.202 67.464C460.978 65.16 465.33 64.008 470.258 64.008C475.122 64.008 479.346 65.128 482.93 67.368C486.578 69.544 489.394 72.584 491.378 76.488C493.362 80.392 494.354 84.84 494.354 89.832C494.354 90.856 494.034 91.688 493.394 92.328C492.754 92.904 491.922 93.192 490.898 93.192H450.098V87.048H491.666L487.538 90.024C487.602 86.312 486.93 82.984 485.522 80.04C484.114 77.096 482.098 74.792 479.474 73.128C476.914 71.464 473.842 70.632 470.258 70.632C466.61 70.632 463.41 71.496 460.658 73.224C457.906 74.952 455.762 77.352 454.226 80.424C452.754 83.432 452.018 86.888 452.018 90.792C452.018 94.696 452.85 98.152 454.514 101.16C456.242 104.168 458.578 106.536 461.522 108.264C464.466 109.992 467.858 110.856 471.698 110.856C474.002 110.856 476.306 110.472 478.61 109.704C480.978 108.872 482.866 107.848 484.274 106.632C484.978 106.056 485.778 105.768 486.674 105.768C487.57 105.704 488.338 105.928 488.978 106.44C489.81 107.208 490.226 108.04 490.226 108.936C490.29 109.832 489.938 110.6 489.17 111.24C487.058 113.032 484.37 114.536 481.106 115.752C477.842 116.904 474.706 117.48 471.698 117.48Z" fill="white"/>
<path d="M295 39L311 15L327 39H319L311 27L303 39H295Z" fill="white"/>
</svg>
