<svg width="473" height="124" viewBox="0 0 473 124" fill="none" xmlns="http://www.w3.org/2000/svg">
<path d="M35.232 102.48C30.24 102.48 25.728 101.328 21.696 99.024C17.728 96.72 14.56 93.584 12.192 89.616C9.888 85.584 8.704 81.072 8.64 76.08V30.768C8.64 29.616 8.96 28.72 9.6 28.08C10.304 27.376 11.232 27.024 12.384 27.024C13.472 27.024 14.336 27.376 14.976 28.08C15.68 28.72 16.032 29.616 16.032 30.768V58.992C18.144 55.984 20.928 53.584 24.384 51.792C27.904 49.936 31.808 49.008 36.096 49.008C41.024 49.008 45.44 50.192 49.344 52.56C53.248 54.864 56.32 58.032 58.56 62.064C60.864 66.096 62.016 70.64 62.016 75.696C62.016 80.816 60.832 85.392 58.464 89.424C56.16 93.456 52.992 96.656 48.96 99.024C44.928 101.328 40.352 102.48 35.232 102.48ZM35.232 95.76C38.944 95.76 42.272 94.896 45.216 93.168C48.16 91.376 50.464 88.976 52.128 85.968C53.856 82.96 54.72 79.536 54.72 75.696C54.72 71.92 53.856 68.528 52.128 65.52C50.464 62.448 48.16 60.048 45.216 58.32C42.272 56.592 38.944 55.728 35.232 55.728C31.584 55.728 28.288 56.592 25.344 58.32C22.4 60.048 20.096 62.448 18.432 65.52C16.768 68.528 15.936 71.92 15.936 75.696C15.936 79.536 16.768 82.96 18.432 85.968C20.096 88.976 22.4 91.376 25.344 93.168C28.288 94.896 31.584 95.76 35.232 95.76ZM79.587 69.648C79.779 65.68 80.803 62.128 82.659 58.992C84.579 55.856 87.043 53.392 90.051 51.6C93.123 49.808 96.515 48.912 100.227 48.912C103.171 48.912 105.443 49.328 107.043 50.16C108.643 50.992 109.251 52.208 108.867 53.808C108.611 54.768 108.163 55.408 107.523 55.728C106.947 56.048 106.211 56.176 105.315 56.112C104.483 56.048 103.523 55.984 102.435 55.92C98.851 55.6 95.651 55.984 92.835 57.072C90.083 58.096 87.875 59.696 86.211 61.872C84.611 64.048 83.811 66.64 83.811 69.648H79.587ZM80.163 102C79.011 102 78.115 101.68 77.475 101.04C76.835 100.4 76.515 99.504 76.515 98.352V53.136C76.515 51.984 76.835 51.088 77.475 50.448C78.115 49.808 79.011 49.488 80.163 49.488C81.315 49.488 82.211 49.808 82.851 50.448C83.491 51.088 83.811 51.984 83.811 53.136V98.352C83.811 99.504 83.491 100.4 82.851 101.04C82.211 101.68 81.315 102 80.163 102ZM125.764 102C124.612 102 123.684 101.68 122.98 101.04C122.34 100.336 122.02 99.408 122.02 98.256V53.232C122.02 52.08 122.34 51.184 122.98 50.544C123.684 49.84 124.612 49.488 125.764 49.488C126.852 49.488 127.716 49.84 128.356 50.544C129.06 51.184 129.412 52.08 129.412 53.232V98.256C129.412 99.408 129.06 100.336 128.356 101.04C127.716 101.68 126.852 102 125.764 102ZM125.668 39.504C124.26 39.504 123.044 38.992 122.02 37.968C120.996 36.944 120.484 35.696 120.484 34.224C120.484 32.624 120.996 31.376 122.02 30.48C123.108 29.52 124.356 29.04 125.764 29.04C127.108 29.04 128.292 29.52 129.316 30.48C130.404 31.376 130.948 32.624 130.948 34.224C130.948 35.696 130.436 36.944 129.412 37.968C128.388 38.992 127.14 39.504 125.668 39.504ZM171.37 102.48C166.314 102.48 161.834 101.36 157.93 99.12C154.026 96.816 150.954 93.648 148.714 89.616C146.538 85.584 145.45 80.976 145.45 75.792C145.45 70.544 146.602 65.904 148.906 61.872C151.21 57.84 154.378 54.704 158.41 52.464C162.442 50.16 167.018 49.008 172.138 49.008C177.322 49.008 181.898 50.16 185.866 52.464C189.898 54.704 193.034 57.84 195.274 61.872C197.578 65.904 198.762 70.544 198.826 75.792L194.506 78.096C194.506 82.832 193.514 87.056 191.53 90.768C189.546 94.416 186.794 97.296 183.274 99.408C179.818 101.456 175.85 102.48 171.37 102.48ZM172.33 122.736C167.274 122.736 162.826 121.776 158.986 119.856C155.146 118 151.978 115.44 149.482 112.176C148.778 111.408 148.458 110.576 148.522 109.68C148.65 108.784 149.13 108.048 149.962 107.472C150.794 106.896 151.722 106.704 152.746 106.896C153.77 107.088 154.57 107.568 155.146 108.336C157.002 110.64 159.37 112.496 162.25 113.904C165.194 115.312 168.586 116.016 172.426 116.016C176.01 116.016 179.242 115.152 182.122 113.424C185.002 111.696 187.274 109.264 188.938 106.128C190.666 102.992 191.53 99.312 191.53 95.088V80.496L194.314 74.928L198.826 75.792V95.376C198.826 100.56 197.674 105.2 195.37 109.296C193.066 113.456 189.93 116.72 185.962 119.088C181.994 121.52 177.45 122.736 172.33 122.736ZM172.138 95.76C175.914 95.76 179.242 94.928 182.122 93.264C185.066 91.536 187.37 89.168 189.034 86.16C190.698 83.152 191.53 79.696 191.53 75.792C191.53 71.888 190.698 68.432 189.034 65.424C187.37 62.352 185.066 59.984 182.122 58.32C179.242 56.592 175.914 55.728 172.138 55.728C168.362 55.728 165.002 56.592 162.058 58.32C159.114 59.984 156.81 62.352 155.146 65.424C153.482 68.432 152.65 71.888 152.65 75.792C152.65 79.696 153.482 83.152 155.146 86.16C156.81 89.168 159.114 91.536 162.058 93.264C165.002 94.928 168.362 95.76 172.138 95.76ZM216.947 80.592C215.795 80.592 214.867 80.24 214.163 79.536C213.523 78.832 213.203 77.936 213.203 76.848V30.768C213.203 29.616 213.523 28.72 214.163 28.08C214.867 27.376 215.795 27.024 216.947 27.024C218.035 27.024 218.899 27.376 219.539 28.08C220.243 28.72 220.595 29.616 220.595 30.768V76.848C220.595 77.936 220.243 78.832 219.539 79.536C218.899 80.24 218.035 80.592 216.947 80.592ZM258.227 102C257.139 102 256.243 101.648 255.539 100.944C254.835 100.24 254.483 99.376 254.483 98.352V73.392C254.483 69.424 253.715 66.16 252.179 63.6C250.707 61.04 248.659 59.12 246.035 57.84C243.475 56.56 240.563 55.92 237.299 55.92C234.163 55.92 231.315 56.528 228.755 57.744C226.259 58.96 224.275 60.624 222.803 62.736C221.331 64.848 220.595 67.248 220.595 69.936H215.315C215.443 65.904 216.531 62.32 218.579 59.184C220.627 55.984 223.347 53.488 226.739 51.696C230.131 49.84 233.907 48.912 238.067 48.912C242.611 48.912 246.675 49.872 250.259 51.792C253.843 53.648 256.659 56.4 258.707 60.048C260.819 63.696 261.875 68.144 261.875 73.392V98.352C261.875 99.376 261.523 100.24 260.819 100.944C260.115 101.648 259.251 102 258.227 102ZM216.947 102C215.795 102 214.867 101.68 214.163 101.04C213.523 100.336 213.203 99.44 213.203 98.352V53.232C213.203 52.08 213.523 51.184 214.163 50.544C214.867 49.84 215.795 49.488 216.947 49.488C218.035 49.488 218.899 49.84 219.539 50.544C220.243 51.184 220.595 52.08 220.595 53.232V98.352C220.595 99.44 220.243 100.336 219.539 101.04C218.899 101.68 218.035 102 216.947 102ZM298.715 102C295.323 102 292.283 101.2 289.595 99.6C286.971 98 284.891 95.824 283.355 93.072C281.819 90.256 281.051 87.056 281.051 83.472V36.528C281.051 35.44 281.371 34.544 282.011 33.84C282.715 33.136 283.611 32.784 284.699 32.784C285.787 32.784 286.683 33.136 287.387 33.84C288.091 34.544 288.443 35.44 288.443 36.528V83.472C288.443 86.736 289.403 89.424 291.323 91.536C293.243 93.584 295.707 94.608 298.715 94.608H301.307C302.331 94.608 303.163 94.96 303.803 95.664C304.443 96.368 304.763 97.264 304.763 98.352C304.763 99.44 304.379 100.336 303.611 101.04C302.843 101.68 301.883 102 300.731 102H298.715ZM274.811 57.84C273.851 57.84 273.051 57.552 272.411 56.976C271.771 56.336 271.451 55.568 271.451 54.672C271.451 53.712 271.771 52.944 272.411 52.368C273.051 51.728 273.851 51.408 274.811 51.408H299.291C300.251 51.408 301.051 51.728 301.691 52.368C302.331 52.944 302.651 53.712 302.651 54.672C302.651 55.568 302.331 56.336 301.691 56.976C301.051 57.552 300.251 57.84 299.291 57.84H274.811ZM339.644 102.576C335.1 102.576 331.036 101.648 327.452 99.792C323.868 97.872 321.02 95.088 318.908 91.44C316.86 87.792 315.836 83.344 315.836 78.096V53.136C315.836 52.112 316.188 51.248 316.892 50.544C317.596 49.84 318.46 49.488 319.484 49.488C320.572 49.488 321.468 49.84 322.172 50.544C322.876 51.248 323.228 52.112 323.228 53.136V78.096C323.228 82.064 323.964 85.328 325.436 87.888C326.972 90.448 329.02 92.368 331.58 93.648C334.204 94.928 337.148 95.568 340.412 95.568C343.548 95.568 346.364 94.96 348.86 93.744C351.42 92.528 353.436 90.864 354.908 88.752C356.38 86.64 357.116 84.24 357.116 81.552H362.396C362.204 85.584 361.084 89.2 359.036 92.4C357.052 95.536 354.364 98.032 350.972 99.888C347.58 101.68 343.804 102.576 339.644 102.576ZM360.764 102C359.676 102 358.78 101.68 358.076 101.04C357.436 100.336 357.116 99.408 357.116 98.256V53.136C357.116 52.048 357.436 51.184 358.076 50.544C358.78 49.84 359.676 49.488 360.764 49.488C361.852 49.488 362.748 49.84 363.452 50.544C364.156 51.184 364.508 52.048 364.508 53.136V98.256C364.508 99.408 364.156 100.336 363.452 101.04C362.748 101.68 361.852 102 360.764 102ZM384.837 69.648C385.029 65.68 386.053 62.128 387.909 58.992C389.829 55.856 392.293 53.392 395.301 51.6C398.373 49.808 401.765 48.912 405.477 48.912C408.421 48.912 410.693 49.328 412.293 50.16C413.893 50.992 414.501 52.208 414.117 53.808C413.861 54.768 413.413 55.408 412.773 55.728C412.197 56.048 411.461 56.176 410.565 56.112C409.733 56.048 408.773 55.984 407.685 55.92C404.101 55.6 400.901 55.984 398.085 57.072C395.333 58.096 393.125 59.696 391.461 61.872C389.861 64.048 389.061 66.64 389.061 69.648H384.837ZM385.413 102C384.261 102 383.365 101.68 382.725 101.04C382.085 100.4 381.765 99.504 381.765 98.352V53.136C381.765 51.984 382.085 51.088 382.725 50.448C383.365 49.808 384.261 49.488 385.413 49.488C386.565 49.488 387.461 49.808 388.101 50.448C388.741 51.088 389.061 51.984 389.061 53.136V98.352C389.061 99.504 388.741 100.4 388.101 101.04C387.461 101.68 386.565 102 385.413 102ZM445.698 102.48C440.514 102.48 435.906 101.36 431.874 99.12C427.906 96.816 424.77 93.648 422.466 89.616C420.226 85.584 419.106 80.976 419.106 75.792C419.106 70.544 420.162 65.936 422.274 61.968C424.45 57.936 427.426 54.768 431.202 52.464C434.978 50.16 439.33 49.008 444.258 49.008C449.122 49.008 453.346 50.128 456.93 52.368C460.578 54.544 463.394 57.584 465.378 61.488C467.362 65.392 468.354 69.84 468.354 74.832C468.354 75.856 468.034 76.688 467.394 77.328C466.754 77.904 465.922 78.192 464.898 78.192H424.098V72.048H465.666L461.538 75.024C461.602 71.312 460.93 67.984 459.522 65.04C458.114 62.096 456.098 59.792 453.474 58.128C450.914 56.464 447.842 55.632 444.258 55.632C440.61 55.632 437.41 56.496 434.658 58.224C431.906 59.952 429.762 62.352 428.226 65.424C426.754 68.432 426.018 71.888 426.018 75.792C426.018 79.696 426.85 83.152 428.514 86.16C430.242 89.168 432.578 91.536 435.522 93.264C438.466 94.992 441.858 95.856 445.698 95.856C448.002 95.856 450.306 95.472 452.61 94.704C454.978 93.872 456.866 92.848 458.274 91.632C458.978 91.056 459.778 90.768 460.674 90.768C461.57 90.704 462.338 90.928 462.978 91.44C463.81 92.208 464.226 93.04 464.226 93.936C464.29 94.832 463.938 95.6 463.17 96.24C461.058 98.032 458.37 99.536 455.106 100.752C451.842 101.904 448.706 102.48 445.698 102.48Z" fill="#0E1116"/>
<path d="M269 24L285 0L301 24H293L285 12L277 24H269Z" fill="#0E1116"/>
</svg>
